<mxfile host="Electron" agent="Mozilla/5.0 (Windows NT 10.0; Win64; x64) AppleWebKit/537.36 (KHTML, like Gecko) draw.io/26.0.16 Chrome/132.0.6834.196 Electron/34.2.0 Safari/537.36" version="26.0.16">
  <diagram name="Страница — 1" id="fQkEsS3AmYVn9ZwLcfNW">
    <mxGraphModel dx="1018" dy="693" grid="1" gridSize="10" guides="1" tooltips="1" connect="1" arrows="1" fold="1" page="1" pageScale="1" pageWidth="827" pageHeight="1169" math="0" shadow="0">
      <root>
        <mxCell id="0" />
        <mxCell id="1" parent="0" />
        <mxCell id="bfzmBaOqiYFBdli9WiuF-6" value="" style="rounded=0;whiteSpace=wrap;html=1;" parent="1" vertex="1">
          <mxGeometry x="300" y="150" width="490" height="590" as="geometry" />
        </mxCell>
        <mxCell id="bfzmBaOqiYFBdli9WiuF-21" style="rounded=0;orthogonalLoop=1;jettySize=auto;html=1;exitX=1;exitY=0.3333333333333333;exitDx=0;exitDy=0;exitPerimeter=0;entryX=0;entryY=0.5;entryDx=0;entryDy=0;endArrow=none;startFill=0;" parent="1" source="bfzmBaOqiYFBdli9WiuF-2" target="bfzmBaOqiYFBdli9WiuF-18" edge="1">
          <mxGeometry relative="1" as="geometry" />
        </mxCell>
        <mxCell id="bfzmBaOqiYFBdli9WiuF-22" style="rounded=0;orthogonalLoop=1;jettySize=auto;html=1;exitX=1;exitY=0.3333333333333333;exitDx=0;exitDy=0;exitPerimeter=0;entryX=0;entryY=0.5;entryDx=0;entryDy=0;endArrow=none;startFill=0;" parent="1" source="bfzmBaOqiYFBdli9WiuF-2" target="bfzmBaOqiYFBdli9WiuF-14" edge="1">
          <mxGeometry relative="1" as="geometry" />
        </mxCell>
        <mxCell id="K6ZIk-zXoI9lIC1VRLp7-3" style="rounded=0;orthogonalLoop=1;jettySize=auto;html=1;exitX=1;exitY=0.3333333333333333;exitDx=0;exitDy=0;exitPerimeter=0;entryX=0;entryY=0.5;entryDx=0;entryDy=0;endArrow=none;startFill=0;" parent="1" source="bfzmBaOqiYFBdli9WiuF-2" target="bfzmBaOqiYFBdli9WiuF-8" edge="1">
          <mxGeometry relative="1" as="geometry" />
        </mxCell>
        <mxCell id="K6ZIk-zXoI9lIC1VRLp7-4" style="rounded=0;orthogonalLoop=1;jettySize=auto;html=1;exitX=1;exitY=0.3333333333333333;exitDx=0;exitDy=0;exitPerimeter=0;entryX=0;entryY=0.5;entryDx=0;entryDy=0;endArrow=none;startFill=0;" parent="1" source="bfzmBaOqiYFBdli9WiuF-2" target="bfzmBaOqiYFBdli9WiuF-13" edge="1">
          <mxGeometry relative="1" as="geometry" />
        </mxCell>
        <mxCell id="K6ZIk-zXoI9lIC1VRLp7-5" style="rounded=0;orthogonalLoop=1;jettySize=auto;html=1;exitX=1;exitY=0.3333333333333333;exitDx=0;exitDy=0;exitPerimeter=0;entryX=0;entryY=0.5;entryDx=0;entryDy=0;endArrow=none;startFill=0;" parent="1" source="bfzmBaOqiYFBdli9WiuF-2" target="bfzmBaOqiYFBdli9WiuF-12" edge="1">
          <mxGeometry relative="1" as="geometry" />
        </mxCell>
        <mxCell id="K6ZIk-zXoI9lIC1VRLp7-6" style="rounded=0;orthogonalLoop=1;jettySize=auto;html=1;exitX=1;exitY=0.3333333333333333;exitDx=0;exitDy=0;exitPerimeter=0;entryX=0;entryY=0.5;entryDx=0;entryDy=0;endArrow=none;startFill=0;" parent="1" source="bfzmBaOqiYFBdli9WiuF-2" target="bfzmBaOqiYFBdli9WiuF-10" edge="1">
          <mxGeometry relative="1" as="geometry" />
        </mxCell>
        <mxCell id="K6ZIk-zXoI9lIC1VRLp7-7" style="rounded=0;orthogonalLoop=1;jettySize=auto;html=1;exitX=1;exitY=0.3333333333333333;exitDx=0;exitDy=0;exitPerimeter=0;entryX=0;entryY=0.5;entryDx=0;entryDy=0;endArrow=none;startFill=0;" parent="1" source="bfzmBaOqiYFBdli9WiuF-2" target="bfzmBaOqiYFBdli9WiuF-9" edge="1">
          <mxGeometry relative="1" as="geometry" />
        </mxCell>
        <mxCell id="qgPFyUP8FX1G4B_4HPpF-2" style="rounded=0;orthogonalLoop=1;jettySize=auto;html=1;exitX=1;exitY=0.3333333333333333;exitDx=0;exitDy=0;exitPerimeter=0;entryX=0;entryY=0.5;entryDx=0;entryDy=0;endArrow=none;startFill=0;" edge="1" parent="1" source="bfzmBaOqiYFBdli9WiuF-2" target="qgPFyUP8FX1G4B_4HPpF-1">
          <mxGeometry relative="1" as="geometry" />
        </mxCell>
        <mxCell id="bfzmBaOqiYFBdli9WiuF-2" value="Пользователь" style="shape=umlActor;verticalLabelPosition=bottom;verticalAlign=top;html=1;outlineConnect=0;" parent="1" vertex="1">
          <mxGeometry x="200" y="360" width="30" height="60" as="geometry" />
        </mxCell>
        <mxCell id="bfzmBaOqiYFBdli9WiuF-8" value="Перейти по рекламе" style="ellipse;whiteSpace=wrap;html=1;" parent="1" vertex="1">
          <mxGeometry x="640" y="405" width="120" height="50" as="geometry" />
        </mxCell>
        <mxCell id="bfzmBaOqiYFBdli9WiuF-9" value="Сменить город" style="ellipse;whiteSpace=wrap;html=1;" parent="1" vertex="1">
          <mxGeometry x="340" y="160" width="120" height="50" as="geometry" />
        </mxCell>
        <mxCell id="bfzmBaOqiYFBdli9WiuF-10" value="Изменить единицы измерения" style="ellipse;whiteSpace=wrap;html=1;" parent="1" vertex="1">
          <mxGeometry x="460" y="190" width="120" height="50" as="geometry" />
        </mxCell>
        <mxCell id="bfzmBaOqiYFBdli9WiuF-12" value="Изменить набор отображаемых данных" style="ellipse;whiteSpace=wrap;html=1;" parent="1" vertex="1">
          <mxGeometry x="560" y="240" width="140" height="60" as="geometry" />
        </mxCell>
        <mxCell id="bfzmBaOqiYFBdli9WiuF-13" value="Посмотреть новости" style="ellipse;whiteSpace=wrap;html=1;" parent="1" vertex="1">
          <mxGeometry x="632" y="320" width="130" height="60" as="geometry" />
        </mxCell>
        <mxCell id="bfzmBaOqiYFBdli9WiuF-14" value="Оставить отзыв" style="ellipse;whiteSpace=wrap;html=1;" parent="1" vertex="1">
          <mxGeometry x="632" y="490" width="116" height="45" as="geometry" />
        </mxCell>
        <mxCell id="bfzmBaOqiYFBdli9WiuF-18" value="Прочиатать дополнительную информацию внизу страницы" style="ellipse;whiteSpace=wrap;html=1;" parent="1" vertex="1">
          <mxGeometry x="590" y="570" width="130" height="70" as="geometry" />
        </mxCell>
        <mxCell id="qgPFyUP8FX1G4B_4HPpF-1" value="Сменить карту осадков" style="ellipse;whiteSpace=wrap;html=1;" vertex="1" parent="1">
          <mxGeometry x="510" y="640" width="110" height="50" as="geometry" />
        </mxCell>
      </root>
    </mxGraphModel>
  </diagram>
</mxfile>
